Coordinates
version=1
nRows=11
nColumns=33
inDegrees=yes

Units are S.I. units (second, meters, Newtons, ...)
Angles are in degrees.

endheader
time	ground_thorax_rot_x	ground_thorax_rot_y	ground_thorax_rot_z	ground_thorax_tx	ground_thorax_ty	ground_thorax_tz	clav_prot_r	clav_elev_r	scapula_abduction_r	scapula_elevation_r	scapula_upward_rot_r	scapula_winging_r	shoulder_elv_r	plane_of_elev_r	axial_rot_r	elbow_flexion_r	pro_sup_r	wrist_flex_r	wrist_dev_r	clav_prot_l	clav_elev_l	scapula_abduction_l	scapula_elevation_l	scapula_upward_rot_l	scapula_winging_l	shoulder_elv_l	plane_of_elev_l	axial_rot_l	elbow_flexion_l	pro_sup_l	wrist_flex_l	wrist_dev_l	
10.0300	20.456731	35.403469	56.274958	-2.219775	800.623541	-41.982336	13.224531	35.586922	27.373923	45.000000	-45.000000	2436.161529	-649.283199	21.850745	-167.714230	1439.206850	-185.548657	12.355111	14.043499	-11.706713	-45.000000	-36.874668	45.000000	-45.000000	4782.426711	-5324.063716	25.802089	31.492505	-11.155470	405.483967	13.579768	-15.807446	
10.0400	20.331252	35.501943	56.477947	-0.919410	799.530368	-41.836927	13.208323	35.608637	27.300133	45.000000	-45.000000	2436.263053	-649.331556	21.806953	-167.532196	1439.269200	-185.438947	12.285699	14.007253	-11.802112	-45.000000	-36.786875	45.000000	-45.000000	4782.418444	-5324.153389	25.728874	31.204217	-11.162101	405.445001	13.545215	-15.705480	
10.0500	20.199660	35.604102	56.688213	0.360336	798.458066	-41.689718	13.200441	35.626677	27.219840	45.000000	-45.000000	2436.362551	-649.376996	21.767050	-167.347918	1439.330855	-185.327395	12.219840	13.963958	-11.898223	-45.000000	-36.699173	45.000000	-45.000000	4782.398856	-5324.235583	25.648425	30.912025	-11.171125	405.404634	13.500462	-15.592536	
10.0600	20.081492	35.700654	56.876099	1.618632	797.406834	-41.539433	13.183316	35.650582	27.151720	45.000000	-45.000000	2436.459209	-649.422676	21.722077	-167.149473	1439.384180	-185.209437	12.159493	13.929640	-11.988001	-45.000000	-36.619069	45.000000	-45.000000	4782.389870	-5324.328392	25.583861	30.625303	-11.183257	405.361042	13.473493	-15.500901	
10.0700	19.961872	35.796157	57.064366	2.854464	796.377068	-41.384529	13.173031	35.674264	27.083543	45.000000	-45.000000	2436.553225	-649.467960	21.680874	-166.951021	1439.437411	-185.085812	12.101464	13.894423	-12.076471	-45.000000	-36.539032	45.000000	-45.000000	4782.375495	-5324.416026	25.514471	30.340275	-11.195361	405.318209	13.440541	-15.405647	
10.0800	19.848209	35.890351	57.240065	4.066515	795.369297	-41.223250	13.157883	35.697817	27.024172	45.000000	-45.000000	2436.641574	-649.515598	21.637529	-166.746858	1439.490132	-184.953711	12.046626	13.863886	-12.163550	-45.000000	-36.463427	45.000000	-45.000000	4782.370141	-5324.507926	25.450401	30.059783	-11.206884	405.275353	13.415088	-15.321559	
10.0900	19.730032	35.988772	57.420840	5.253104	794.384005	-41.053823	13.148602	35.720636	26.957368	45.000000	-45.000000	2436.730115	-649.557789	21.594434	-166.547798	1439.541275	-184.814378	11.994362	13.823065	-12.249966	-45.000000	-36.380660	45.000000	-45.000000	4782.355293	-5324.591132	25.375954	29.772152	-11.216785	405.235764	13.376963	-15.226638	
10.1000	19.616333	36.085330	57.593847	6.412858	793.421045	-40.875169	13.134494	35.742707	26.895257	45.000000	-45.000000	2436.815803	-649.598381	21.551153	-166.344942	1439.587727	-184.666279	11.946998	13.781736	-12.334644	-45.000000	-36.300746	45.000000	-45.000000	4782.346765	-5324.677887	25.306979	29.482425	-11.226395	405.197583	13.343356	-15.139118	
10.1100	19.505618	36.182778	57.761705	7.544523	792.479955	-40.687676	13.122715	35.764568	26.834311	45.000000	-45.000000	2436.894773	-649.641081	21.508489	-166.144574	1439.631575	-184.509632	11.902548	13.742952	-12.419132	-45.000000	-36.221276	45.000000	-45.000000	4782.337627	-5324.763283	25.235750	29.195118	-11.236287	405.160975	13.308985	-15.053361	
10.1200	19.399518	36.278213	57.922038	8.647602	791.559825	-40.493889	13.108286	35.786009	26.774137	45.000000	-45.000000	2436.974885	-649.681970	21.463641	-165.946158	1439.670729	-184.345845	11.863264	13.700732	-12.502735	-45.000000	-36.141248	45.000000	-45.000000	4782.330154	-5324.849320	25.168742	28.909015	-11.246663	405.125774	13.274900	-14.970389	
10.1300	19.297364	36.373068	58.075459	9.721714	790.660188	-40.298226	13.093702	35.806295	26.714323	45.000000	-45.000000	2437.049997	-649.724186	21.421249	-165.749171	1439.708978	-184.177777	11.826004	13.663856	-12.585503	-45.000000	-36.062663	45.000000	-45.000000	4782.324113	-5324.935863	25.103187	28.626259	-11.257038	405.091679	13.243960	-14.893806	
